<?xml version="1.0" encoding="UTF-8"?>
<svg id="_레이어_1" data-name="레이어 1" xmlns="http://www.w3.org/2000/svg" viewBox="0 0 162.56 69.65">
  <defs>
    <style>
      .cls-1 {
        fill: #0074d0;
      }
    </style>
  </defs>
  <path class="cls-1" d="M13.93,26.52c-1.28-.11-2.36-.62-3.25-1.54-.89-.92-1.42-2.23-1.58-3.96-.33-3.22,.15-6.04,1.46-8.45,1.3-2.42,3.08-4.46,5.33-6.12,2.25-1.67,4.76-3.01,7.54-4.04,2.78-1.03,5.47-1.76,8.08-2.21,2.39-.33,4.77-.25,7.16,.25,2.39,.5,4.5,1.36,6.33,2.58,1.83,1.22,3.25,2.8,4.25,4.75,1,1.94,1.28,4.19,.83,6.75-.67,2.61-1.78,4.82-3.33,6.62-1.56,1.81-3.3,3.51-5.25,5.12,1.83,.61,3.53,1.47,5.08,2.58,1.55,1.11,2.87,2.42,3.96,3.91,1.08,1.5,1.9,3.12,2.46,4.87,.55,1.75,.78,3.54,.67,5.37-.39,3.94-1.62,7.48-3.71,10.62-2.08,3.14-4.72,5.83-7.91,8.08-3.19,2.25-6.78,4.04-10.74,5.37-3.97,1.33-8.01,2.17-12.12,2.5-2.28,.17-4.71,.04-7.29-.38-2.58-.42-4.86-1.19-6.83-2.33-1.97-1.14-3.43-2.68-4.37-4.62-.94-1.94-.92-4.33,.08-7.16,.55-1.44,1.64-2.83,3.25-4.16,1.61-1.33,3.53-2.39,5.75-3.17,.44-1.44,1.19-3.62,2.25-6.54,1.05-2.92,2.37-6.13,3.96-9.66,1.58-3.53,3.39-7.15,5.41-10.87,2.03-3.72,4.21-7.11,6.54-10.16,.5-.78,1.08-1.5,1.75-2.17,.67-.67,1.36-1.3,2.08-1.92,1.22-.89,2.42-.5,3.58,1.17-.5,1.44-1.07,2.86-1.71,4.25-.64,1.39-1.35,2.8-2.12,4.25-2.83,5.33-5.53,10.47-8.08,15.41-2.55,4.94-4.66,10.02-6.33,15.24,2.67,.56,5.12,1.32,7.37,2.29,2.25,.97,4.23,2.43,5.96,4.37-.28,.56-.56,.82-.83,.79-.28-.03-.58-.1-.92-.21-2.17-1.11-4.37-2.03-6.62-2.75-2.25-.72-4.46-.86-6.62-.42-.67,1.72-1.25,3.39-1.75,5-.5,1.61-1.11,3.11-1.83,4.5-.28,.39-.65,.75-1.12,1.08-.47,.33-.96,.54-1.46,.62-.5,.08-.94,0-1.33-.25-.39-.25-.61-.74-.67-1.46-.06-.67-.01-1.34,.12-2.04,.14-.69,.29-1.38,.46-2.04s.35-1.33,.54-2c.19-.67,.32-1.28,.37-1.83-1.17,.44-2.18,1.19-3.04,2.25-.86,1.05-1.35,2.08-1.46,3.08-.33,2.05,.07,3.64,1.21,4.75,1.14,1.11,2.57,1.9,4.29,2.38,1.72,.47,3.48,.72,5.29,.75,1.8,.03,3.21-.04,4.21-.21,3.5-.56,6.83-1.49,9.99-2.79,3.17-1.3,5.96-2.97,8.37-5,2.42-2.03,4.32-4.37,5.71-7.04,1.39-2.67,2.05-5.61,2-8.83-.11-2.72-.87-5.01-2.29-6.87s-3.46-2.76-6.12-2.71c-1.28,0-2.55,.15-3.83,.46-1.28,.31-2.55,.6-3.83,.88-.44,.11-.89,.22-1.33,.33-.45,.11-.92-.05-1.42-.5-.39-.33-.5-.85-.33-1.54,.17-.69,.61-1.26,1.33-1.71,1.89-1,3.72-2.01,5.5-3.04,1.78-1.03,3.36-2.15,4.75-3.37,1.39-1.22,2.55-2.58,3.5-4.08,.94-1.5,1.55-3.22,1.83-5.16,.17-1.28,.11-2.51-.17-3.71-.28-1.19-.76-2.25-1.46-3.17-.69-.92-1.56-1.67-2.58-2.25-1.03-.58-2.21-.93-3.54-1.04-1.89-.11-3.93,.04-6.12,.46-2.19,.42-4.32,1.08-6.37,2-2.06,.92-3.94,2.05-5.66,3.42-1.72,1.36-3.05,2.89-4,4.58-.94,1.69-1.42,3.54-1.42,5.54s.72,4.08,2.17,6.25Z"/>
  <path class="cls-1" d="M65.99,45.93c-1,1.11-1.67,2.51-2,4.21-.33,1.69-.31,3.29,.08,4.79,.39,1.5,1.12,2.71,2.21,3.62,1.08,.92,2.6,1.18,4.54,.79,1.78-.5,3.64-1.36,5.58-2.58,1.94-1.22,3.8-2.64,5.58-4.25,1.78-1.61,3.39-3.33,4.83-5.16,1.44-1.83,2.55-3.61,3.33-5.33,.11,.67,.22,1.18,.33,1.54,.11,.36,.11,.65,0,.87-1.17,2.17-2.57,4.37-4.21,6.62-1.64,2.25-3.47,4.29-5.5,6.12-2.03,1.83-4.22,3.33-6.58,4.5-2.36,1.17-4.82,1.75-7.37,1.75-2.5-.11-4.65-.94-6.46-2.5-1.8-1.55-2.98-3.53-3.54-5.91-.39-1.78-.53-3.5-.42-5.16,.11-1.67,.56-3.28,1.33-4.83,1-2,2.22-3.72,3.66-5.16,1.44-1.44,3.19-2.64,5.25-3.58,1.17-.61,2.39-.97,3.66-1.08,1.28-.11,2.58-.03,3.91,.25,1.44,.28,2.68,.79,3.71,1.54,1.03,.75,1.82,1.85,2.37,3.29,.5,1.33,.58,2.54,.25,3.62-.33,1.08-.92,2.1-1.75,3.04-1.56,1.72-3.5,2.72-5.83,3-1.44,.11-2.8-.12-4.08-.71-1.28-.58-2.25-1.68-2.92-3.29Zm2.33-2.33c.44,1.72,1.04,2.85,1.79,3.37,.75,.53,1.76,.62,3.04,.29,1.61-.39,2.83-1.3,3.66-2.75,.5-1,.49-1.93-.04-2.79-.53-.86-1.37-1.32-2.54-1.37-1-.05-2.04,.28-3.12,1-1.08,.72-2.01,1.47-2.79,2.25Z"/>
  <path class="cls-1" d="M94.89,45.93c-1,1.11-1.67,2.51-2,4.21-.33,1.69-.31,3.29,.08,4.79,.39,1.5,1.12,2.71,2.21,3.62s2.59,1.18,4.54,.79c1.78-.5,3.63-1.36,5.58-2.58,1.94-1.22,3.8-2.64,5.58-4.25,1.78-1.61,3.39-3.33,4.83-5.16,1.44-1.83,2.55-3.61,3.33-5.33,.11,.67,.22,1.18,.33,1.54,.11,.36,.11,.65,0,.87-1.17,2.17-2.57,4.37-4.21,6.62-1.64,2.25-3.47,4.29-5.5,6.12-2.03,1.83-4.22,3.33-6.58,4.5-2.36,1.17-4.82,1.75-7.37,1.75-2.5-.11-4.65-.94-6.46-2.5-1.8-1.55-2.98-3.53-3.54-5.91-.39-1.78-.53-3.5-.42-5.16,.11-1.67,.56-3.28,1.33-4.83,1-2,2.22-3.72,3.67-5.16,1.44-1.44,3.19-2.64,5.25-3.58,1.17-.61,2.39-.97,3.67-1.08,1.28-.11,2.58-.03,3.91,.25,1.44,.28,2.68,.79,3.71,1.54,1.03,.75,1.82,1.85,2.37,3.29,.5,1.33,.58,2.54,.25,3.62-.33,1.08-.92,2.1-1.75,3.04-1.56,1.72-3.5,2.72-5.83,3-1.44,.11-2.8-.12-4.08-.71-1.28-.58-2.25-1.68-2.92-3.29Zm2.33-2.33c.44,1.72,1.04,2.85,1.79,3.37,.75,.53,1.76,.62,3.04,.29,1.61-.39,2.83-1.3,3.66-2.75,.5-1,.49-1.93-.04-2.79-.53-.86-1.38-1.32-2.54-1.37-1-.05-2.04,.28-3.12,1-1.08,.72-2.01,1.47-2.79,2.25Z"/>
  <path class="cls-1" d="M141.86,36.18c1.28,0,2.33,.33,3.17,1s1.46,1.47,1.87,2.42c.42,.95,.62,1.93,.62,2.96s-.17,1.9-.5,2.62c-.61,1.11-1.4,2.32-2.37,3.62-.97,1.31-1.92,2.62-2.83,3.96s-1.68,2.64-2.29,3.91c-.61,1.28-.89,2.47-.83,3.58,.39,.45,1.08,.49,2.08,.12,1-.36,2.18-.99,3.54-1.87,1.36-.89,2.85-1.96,4.46-3.21s3.21-2.54,4.79-3.87c1.58-1.33,3.07-2.65,4.46-3.96,1.39-1.3,2.58-2.46,3.58-3.46,.78,.28,1.08,.56,.92,.83-.17,.28-.31,.55-.42,.83-1,1.61-2.39,3.3-4.17,5.08s-3.67,3.5-5.66,5.16c-2,1.67-3.97,3.19-5.91,4.58-1.94,1.39-3.61,2.5-5,3.33-1.05,.61-2.28,1.01-3.66,1.21-1.39,.19-2.72-.1-4-.88s-2.22-1.72-2.83-2.83c-.61-1.11-.78-2.33-.5-3.66,.39-1.72,.96-3.34,1.71-4.87,.75-1.53,1.61-2.98,2.58-4.37,.97-1.39,1.97-2.73,3-4.04,1.03-1.3,2.01-2.59,2.96-3.87,.33-.39,.42-.64,.25-.75-.17-.11-.42-.15-.75-.12-.33,.03-.71,.11-1.12,.25-.42,.14-.71,.26-.88,.37-2.28,1.22-4.32,2.67-6.12,4.33-1.81,1.67-3.43,3.47-4.87,5.41-.5,.67-1.18,1.67-2.04,3-.86,1.33-1.78,2.69-2.75,4.08-.97,1.39-1.93,2.65-2.87,3.79-.94,1.14-1.75,1.82-2.42,2.04-2-.33-3.14-1.44-3.41-3.33-.22-1.61-.12-3.42,.29-5.41s1.07-4.01,1.96-6.04c.89-2.03,1.93-3.96,3.12-5.79,1.19-1.83,2.46-3.42,3.79-4.75,.33-.33,.68-.69,1.04-1.08,.36-.39,.76-.73,1.21-1.04,.44-.3,.9-.48,1.37-.54,.47-.05,1.01,.11,1.62,.5,.5,.33,.78,.7,.83,1.08,.05,.39,.01,.81-.12,1.25-.14,.45-.33,.89-.58,1.33-.25,.45-.46,.86-.62,1.25-.33,.89-.69,1.76-1.08,2.62-.39,.86-.78,1.74-1.17,2.62,1.28-1.17,2.55-2.28,3.83-3.33,1.28-1.05,2.58-2.01,3.92-2.87,1.33-.86,2.72-1.57,4.16-2.12,1.44-.55,3-.92,4.66-1.08Z"/>
</svg>