<?xml version="1.0" encoding="utf-8"?>
<!-- Generator: Adobe Illustrator 26.4.0, SVG Export Plug-In . SVG Version: 6.00 Build 0)  -->
<svg version="1.1" id="레이어_1" xmlns="http://www.w3.org/2000/svg" xmlns:xlink="http://www.w3.org/1999/xlink" x="0px"
	 y="0px" viewBox="0 0 24 24" style="enable-background:new 0 0 24 24;" xml:space="preserve">
<style type="text/css">
	.st0{fill:#FFFFFF;}
</style>
<path class="st0" d="M6.7,1.9c-2.6,0-4.8,2.2-4.8,4.8v10.6c0,2.6,2.2,4.8,4.8,4.8h10.6c2.6,0,4.8-2.2,4.8-4.8V6.7
	c0-2.6-2.2-4.8-4.8-4.8H6.7z M6.7,2.9h10.6c2.1,0,3.8,1.7,3.8,3.8v10.6c0,2.1-1.7,3.8-3.8,3.8H6.7c-2.1,0-3.8-1.7-3.8-3.8V6.7
	C2.9,4.6,4.6,2.9,6.7,2.9z M6.2,7.2c-0.8,0-1.4,0.7-1.4,1.4v6.7c0,0.8,0.7,1.4,1.4,1.4h11.5c0.8,0,1.4-0.7,1.4-1.4V8.6
	c0-0.8-0.7-1.4-1.4-1.4H6.2z M6.4,8.2h11.1l-4.3,4.3c-0.7,0.7-1.9,0.7-2.6,0L6.4,8.2z M18.2,8.8v6.3L15.1,12L18.2,8.8z M5.8,8.8
	L8.9,12l-3.2,3.2V8.8z M14.4,12.7l3.2,3.2H6.4l3.2-3.2l0.4,0.4c1.1,1.1,2.9,1.1,3.9,0L14.4,12.7z"/>
</svg>
